<svg width="24" height="21" viewBox="0 0 24 21" fill="none" xmlns="http://www.w3.org/2000/svg">
<path d="M20.8401 2.61C20.3294 2.099 19.7229 1.69364 19.0555 1.41708C18.388 1.14052 17.6726 0.998173 16.9501 0.998173C16.2276 0.998173 15.5122 1.14052 14.8448 1.41708C14.1773 1.69364 13.5709 2.099 13.0601 2.61L12.0001 3.67L10.9401 2.61C9.90843 1.57831 8.50915 0.998708 7.05012 0.998708C5.59109 0.998708 4.19181 1.57831 3.16012 2.61C2.12843 3.64169 1.54883 5.04097 1.54883 6.5C1.54883 7.95903 2.12843 9.35831 3.16012 10.39L4.22012 11.45L12.0001 19.23L19.7801 11.45L20.8401 10.39C21.3511 9.87924 21.7565 9.27281 22.033 8.60535C22.3096 7.93789 22.4519 7.22249 22.4519 6.5C22.4519 5.77751 22.3096 5.0621 22.033 4.39464C21.7565 3.72718 21.3511 3.12075 20.8401 2.61Z" stroke="#ACACAC" stroke-width="2" stroke-linecap="round" stroke-linejoin="round"/>
</svg>
